<svg width="21" height="20" viewBox="0 0 21 20" fill="none" xmlns="http://www.w3.org/2000/svg">
<path d="M3.287 13.45L5.95 0.69175C5.98733 0.496583 6.085 0.3325 6.243 0.1995C6.401 0.0664995 6.57958 0 6.77875 0H7.15275C7.34808 0 7.52567 0.0654996 7.6855 0.1965C7.8455 0.3275 7.94417 0.490583 7.9815 0.68575L11.1658 15.499L13.131 6.86075C13.1643 6.66558 13.2652 6.5025 13.4335 6.3715C13.6017 6.2405 13.7834 6.175 13.9788 6.175H14.4028C14.5981 6.175 14.7757 6.23633 14.9355 6.359C15.0955 6.48167 15.2025 6.64058 15.2565 6.83575L16.8695 13.45H19.3407C19.5608 13.45 19.7475 13.5268 19.901 13.6805C20.0547 13.834 20.1315 14.0208 20.1315 14.2408C20.1315 14.4608 20.0547 14.6517 19.901 14.8135C19.7475 14.9755 19.5608 15.0565 19.3407 15.0565H16.2708C16.0634 15.0565 15.8832 14.9953 15.73 14.873C15.5767 14.7508 15.4813 14.5944 15.444 14.4038L14.2158 9.49675L12.1065 18.5648C12.0692 18.7599 11.9788 18.9115 11.8355 19.0195C11.6923 19.1275 11.5231 19.1815 11.3278 19.1815H10.9538C10.7584 19.1815 10.5892 19.1233 10.446 19.007C10.3027 18.8907 10.2143 18.7349 10.181 18.5398L6.99075 3.7885L4.7625 14.3788C4.72517 14.5861 4.62983 14.7508 4.4765 14.873C4.32333 14.9953 4.14308 15.0565 3.93575 15.0565H0.79075C0.57075 15.0565 0.384 14.9755 0.2305 14.8135C0.0768332 14.6517 0 14.4608 0 14.2408C0 14.0208 0.0809998 13.834 0.243 13.6805C0.404833 13.5268 0.59575 13.45 0.81575 13.45H3.287Z" fill="#030508"/>
</svg>
